ffmpeg started on 2016-12-09 at 18:33:01
Report written to "Output/x264/results/ffmpeg/sintelplacebo8000k.log"
Command line:
Tools/ffmpeg/ffmpeg -benchmark -y -i Input/y4m/sintel.y4m -c:v libx264 -preset placebo -b:v 8000k -an Output/x264/encoded/sintelplacebo8000k.mkv
ffmpeg version N-82227-gdb23fde Copyright (c) 2000-2016 the FFmpeg developers
  built with gcc 5.4.0 (Ubuntu 5.4.0-6ubuntu1~16.04.2) 20160609
  configuration: --prefix=/home/jaroslav/ffmpeg_build --pkg-config-flags=--static --extra-cflags=-I/home/jaroslav/ffmpeg_build/include --extra-ldflags=-L/home/jaroslav/ffmpeg_build/lib --bindir=/home/jaroslav/bin --enable-gpl --enable-libass --enable-libfdk-aac --enable-libfreetype --enable-libmp3lame --enable-libopus --enable-libtheora --enable-libvorbis --enable-libvpx --enable-libx264 --enable-libx265 --enable-nvenc --enable-libmfx --enable-libxvid --enable-libgsm --enable-libopencore-amrnb --enable-version3 --enable-nonfree
  libavutil      55. 35.100 / 55. 35.100
  libavcodec     57. 66.101 / 57. 66.101
  libavformat    57. 57.100 / 57. 57.100
  libavdevice    57.  2.100 / 57.  2.100
  libavfilter     6. 66.100 /  6. 66.100
  libswscale      4.  3.100 /  4.  3.100
  libswresample   2.  4.100 /  2.  4.100
  libpostproc    54.  2.100 / 54.  2.100
Input #0, yuv4mpegpipe, from 'Input/y4m/sintel.y4m':
  Duration: 00:00:20.83, start: 0.000000, bitrate: 2057307 kb/s
    Stream #0:0: Video: rawvideo (I420 / 0x30323449), yuv420p(progressive), 4096x1744, SAR 1:1 DAR 256:109, 24 fps, 24 tbr, 24 tbn, 24 tbc
[libx264 @ 0x35541c0] using SAR=1/1
[libx264 @ 0x35541c0] DPB size (16 frames, 446464 mbs) > level limit (6 frames, 184320 mbs)
[libx264 @ 0x35541c0] using cpu capabilities: MMX2 SSE2Fast SSSE3 SSE4.2 AVX FMA3 AVX2 LZCNT BMI2
[libx264 @ 0x35541c0] profile High, level 5.2
[libx264 @ 0x35541c0] 264 - core 148 - H.264/MPEG-4 AVC codec - Copyleft 2003-2016 - http://www.videolan.org/x264.html - options: cabac=1 ref=16 deblock=1:0:0 analyse=0x3:0x133 me=tesa subme=11 psy=1 psy_rd=1.00:0.00 mixed_ref=1 me_range=24 chroma_me=1 trellis=2 8x8dct=1 cqm=0 deadzone=21,11 fast_pskip=0 chroma_qp_offset=-2 threads=6 lookahead_threads=1 sliced_threads=0 nr=0 decimate=1 interlaced=0 bluray_compat=0 constrained_intra=0 bframes=16 b_pyramid=2 b_adapt=2 b_bias=0 direct=3 weightb=1 open_gop=0 weightp=2 keyint=250 keyint_min=24 scenecut=40 intra_refresh=0 rc_lookahead=60 rc=abr mbtree=1 bitrate=8000 ratetol=1.0 qcomp=0.60 qpmin=0 qpmax=69 qpstep=4 ip_ratio=1.40 aq=1:1.00
Output #0, matroska, to 'Output/x264/encoded/sintelplacebo8000k.mkv':
  Metadata:
    encoder         : Lavf57.57.100
    Stream #0:0: Video: h264 (libx264) (H264 / 0x34363248), yuv420p, 4096x1744 [SAR 1:1 DAR 256:109], q=-1--1, 8000 kb/s, 24 fps, 1k tbn, 24 tbc
    Metadata:
      encoder         : Lavc57.66.101 libx264
    Side data:
      cpb: bitrate max/min/avg: 0/0/8000000 buffer size: 0 vbv_delay: -1
Stream mapping:
  Stream #0:0 -> #0:0 (rawvideo (native) -> h264 (libx264))
Press [q] to stop, [?] for help
frame=   11 fps=0.0 q=0.0 size=       0kB time=00:00:00.00 bitrate=N/A speed=   0x    frame=   18 fps= 16 q=0.0 size=       0kB time=00:00:00.00 bitrate=N/A speed=   0x    frame=   26 fps= 16 q=0.0 size=       0kB time=00:00:00.00 bitrate=N/A speed=   0x    frame=   32 fps= 14 q=0.0 size=       0kB time=00:00:00.00 bitrate=N/A speed=   0x    frame=   40 fps= 15 q=0.0 size=       0kB time=00:00:00.00 bitrate=N/A speed=   0x    frame=   48 fps= 15 q=0.0 size=       0kB time=00:00:00.00 bitrate=N/A speed=   0x    frame=   56 fps= 15 q=0.0 size=       0kB time=00:00:00.00 bitrate=N/A speed=   0x    frame=   67 fps= 16 q=0.0 size=       0kB time=00:00:00.00 bitrate=N/A speed=   0x    frame=   75 fps=9.5 q=0.0 size=       0kB time=00:00:00.00 bitrate=N/A speed=   0x    frame=   76 fps=8.4 q=0.0 size=       0kB time=00:00:00.00 bitrate=N/A speed=   0x    frame=   84 fps=1.5 q=0.0 size=       0kB time=00:00:00.00 bitrate=N/A speed=   0x    frame=   86 fps=1.5 q=0.0 size=       0kB time=00:00:00.00 bitrate=N/A speed=   0x    frame=   88 fps=1.4 q=27.0 size=       1kB time=-00:00:00.08 bitrate=N/A speed=N/A    frame=   90 fps=1.4 q=31.0 size=       1kB time=00:00:00.00 bitrate=5888.0kbits/s speed=1.54e-05x    frame=   91 fps=1.4 q=43.0 size=       1kB time=00:00:00.04 bitrate= 136.9kbits/s speed=0.000655x    frame=   92 fps=1.4 q=39.0 size=       1kB time=00:00:00.08 bitrate=  70.1kbits/s speed=0.00124x    frame=   93 fps=1.2 q=44.0 size=       1kB time=00:00:00.12 bitrate=  46.7kbits/s speed=0.00167x    frame=   94 fps=1.2 q=43.0 size=       1kB time=00:00:00.16 bitrate=  35.0kbits/s speed=0.0022x    frame=   96 fps=1.2 q=44.0 size=       1kB time=00:00:00.25 bitrate=  23.5kbits/s speed=0.00322x    frame=   99 fps=1.2 q=44.0 size=       1kB time=00:00:00.37 bitrate=  15.7kbits/s speed=0.00441x    frame=  100 fps=1.2 q=43.0 size=       1kB time=00:00:00.41 bitrate=  14.1kbits/s speed=0.00485x    frame=  101 fps=1.1 q=44.0 size=       1kB time=00:00:00.45 bitrate=  12.8kbits/s speed=0.00514x    frame=  102 fps=1.1 q=43.0 size=       1kB time=00:00:00.50 bitrate=  11.8kbits/s speed=0.00556x    frame=  103 fps=1.1 q=43.0 size=       1kB time=00:00:00.54 bitrate=  10.8kbits/s speed=0.00594x    frame=  104 fps=1.1 q=43.0 size=       1kB time=00:00:00.58 bitrate=  10.1kbits/s speed=0.00611x    frame=  105 fps=1.0 q=44.0 size=       1kB time=00:00:00.62 bitrate=   9.4kbits/s speed=0.00617x    frame=  106 fps=1.0 q=44.0 size=       1kB time=00:00:00.66 bitrate=   8.8kbits/s speed=0.00631x    frame=  107 fps=1.0 q=43.0 size=       1kB time=00:00:00.70 bitrate=   8.3kbits/s speed=0.00661x    frame=  108 fps=1.0 q=44.0 size=       1kB time=00:00:00.75 bitrate=   7.8kbits/s speed=0.00689x    frame=  109 fps=1.0 q=43.0 size=       1kB time=00:00:00.79 bitrate=   7.4kbits/s speed=0.00708x    frame=  110 fps=1.0 q=43.0 size=       1kB time=00:00:00.83 bitrate=   7.1kbits/s speed=0.00726x    frame=  111 fps=0.9 q=43.0 size=       1kB time=00:00:00.87 bitrate=   6.7kbits/s speed=0.00726x    frame=  112 fps=0.9 q=43.0 size=       1kB time=00:00:00.91 bitrate=   6.4kbits/s speed=0.00738x    frame=  113 fps=0.9 q=43.0 size=       1kB time=00:00:00.95 bitrate=   6.1kbits/s speed=0.00747x    frame=  114 fps=0.9 q=43.0 size=       1kB time=00:00:01.00 bitrate=   5.9kbits/s speed=0.00768x    frame=  116 fps=0.9 q=43.0 size=       1kB time=00:00:01.08 bitrate=   5.4kbits/s speed=0.00818x    frame=  117 fps=0.9 q=43.0 size=       1kB time=00:00:01.12 bitrate=   5.2kbits/s speed=0.00822x    frame=  118 fps=0.8 q=43.0 size=       1kB time=00:00:01.16 bitrate=   5.0kbits/s speed=0.00822x    frame=  119 fps=0.8 q=42.0 size=       1kB time=00:00:01.20 bitrate=   4.9kbits/s speed=0.00834x    frame=  120 fps=0.8 q=42.0 size=       1kB time=00:00:01.25 bitrate=   4.7kbits/s speed=0.00846x    frame=  121 fps=0.8 q=42.0 size=       1kB time=00:00:01.29 bitrate=   4.6kbits/s speed=0.00856x    frame=  122 fps=0.8 q=42.0 size=       1kB time=00:00:01.33 bitrate=   4.4kbits/s speed=0.00868x    frame=  123 fps=0.8 q=42.0 size=       1kB time=00:00:01.37 bitrate=   4.3kbits/s speed=0.00877x    frame=  124 fps=0.8 q=42.0 size=       1kB time=00:00:01.41 bitrate=   4.2kbits/s speed=0.00883x    frame=  125 fps=0.8 q=42.0 size=       1kB time=00:00:01.45 bitrate=   4.0kbits/s speed=0.00885x    frame=  126 fps=0.8 q=42.0 size=       1kB time=00:00:01.50 bitrate=   3.9kbits/s speed=0.00901x    frame=  127 fps=0.7 q=42.0 size=       1kB time=00:00:01.54 bitrate=   3.8kbits/s speed=0.00905x    frame=  128 fps=0.7 q=42.0 size=       1kB time=00:00:01.58 bitrate=   3.7kbits/s speed=0.00914x    frame=  129 fps=0.7 q=42.0 size=       1kB time=00:00:01.62 bitrate=   3.6kbits/s speed=0.00926x    frame=  130 fps=0.7 q=42.0 size=       1kB time=00:00:01.66 bitrate=   3.5kbits/s speed=0.0094x    frame=  131 fps=0.7 q=42.0 size=       1kB time=00:00:01.70 bitrate=   3.4kbits/s speed=0.00934x    frame=  132 fps=0.7 q=41.0 size=       1kB time=00:00:01.75 bitrate=   3.4kbits/s speed=0.00949x    frame=  133 fps=0.7 q=41.0 size=       1kB time=00:00:01.79 bitrate=   3.3kbits/s speed=0.00953x    frame=  134 fps=0.7 q=41.0 size=       1kB time=00:00:01.83 bitrate=   3.2kbits/s speed=0.00962x    frame=  135 fps=0.7 q=41.0 size=       1kB time=00:00:01.87 bitrate=   3.1kbits/s speed=0.00963x    frame=  136 fps=0.7 q=41.0 size=       1kB time=00:00:01.91 bitrate=   3.1kbits/s speed=0.00975x    frame=  137 fps=0.7 q=41.0 size=       1kB time=00:00:01.95 bitrate=   3.0kbits/s speed=0.00972x    frame=  138 fps=0.7 q=41.0 size=       1kB time=00:00:02.00 bitrate=   2.9kbits/s speed=0.00981x    frame=  139 fps=0.7 q=41.0 size=       1kB time=00:00:02.04 bitrate=   2.9kbits/s speed=0.00974x    frame=  140 fps=0.7 q=41.0 size=       1kB time=00:00:02.08 bitrate=   2.8kbits/s speed=0.00984x    frame=  141 fps=0.7 q=41.0 size=       1kB time=00:00:02.12 bitrate=   2.8kbits/s speed=0.00981x    frame=  142 fps=0.6 q=41.0 size=       1kB time=00:00:02.16 bitrate=   2.7kbits/s speed=0.00978x    frame=  143 fps=0.6 q=41.0 size=       1kB time=00:00:02.20 bitrate=   2.7kbits/s speed=0.00986x    frame=  144 fps=0.6 q=41.0 size=       1kB time=00:00:02.25 bitrate=   2.6kbits/s speed=0.00989x    frame=  145 fps=0.6 q=41.0 size=       1kB time=00:00:02.29 bitrate=   2.6kbits/s speed=0.00991x    frame=  146 fps=0.6 q=41.0 size=       1kB time=00:00:02.33 bitrate=   2.5kbits/s speed=0.00996x    frame=  147 fps=0.6 q=41.0 size=       1kB time=00:00:02.37 bitrate=   2.5kbits/s speed=0.00998x    frame=  148 fps=0.6 q=41.0 size=       1kB time=00:00:02.41 bitrate=   2.4kbits/s speed=0.00986x    frame=  149 fps=0.6 q=41.0 size=       1kB time=00:00:02.45 bitrate=   2.4kbits/s speed=0.00993x    frame=  150 fps=0.6 q=41.0 size=       1kB time=00:00:02.50 bitrate=   2.4kbits/s speed=0.01x    frame=  151 fps=0.6 q=41.0 size=       1kB time=00:00:02.54 bitrate=   2.3kbits/s speed=0.0101x    frame=  152 fps=0.6 q=41.0 size=       1kB time=00:00:02.58 bitrate=   2.3kbits/s speed=0.0102x    frame=  153 fps=0.6 q=41.0 size=       1kB time=00:00:02.62 bitrate=   2.2kbits/s speed=0.0102x    frame=  154 fps=0.6 q=41.0 size=       1kB time=00:00:02.66 bitrate=   2.2kbits/s speed=0.00998x    frame=  155 fps=0.6 q=40.0 size=       1kB time=00:00:02.70 bitrate=   2.2kbits/s speed=0.0101x    frame=  156 fps=0.6 q=40.0 size=       1kB time=00:00:02.75 bitrate=   2.1kbits/s speed=0.0101x    frame=  157 fps=0.6 q=40.0 size=       1kB time=00:00:02.79 bitrate=   2.1kbits/s speed=0.0102x    frame=  158 fps=0.6 q=40.0 size=       1kB time=00:00:02.83 bitrate=   2.1kbits/s speed=0.0103x    frame=  159 fps=0.6 q=40.0 size=       1kB time=00:00:02.87 bitrate=   2.0kbits/s speed=0.0104x    frame=  160 fps=0.6 q=40.0 size=       1kB time=00:00:02.91 bitrate=   2.0kbits/s speed=0.0102x    frame=  161 fps=0.6 q=40.0 size=       1kB time=00:00:02.95 bitrate=   2.0kbits/s speed=0.0103x    frame=  162 fps=0.6 q=40.0 size=       1kB time=00:00:03.00 bitrate=   2.0kbits/s speed=0.0103x    frame=  163 fps=0.6 q=40.0 size=       1kB time=00:00:03.04 bitrate=   1.9kbits/s speed=0.0104x    frame=  164 fps=0.6 q=40.0 size=       1kB time=00:00:03.08 bitrate=   1.9kbits/s speed=0.0105x    frame=  165 fps=0.6 q=40.0 size=       1kB time=00:00:03.12 bitrate=   1.9kbits/s speed=0.0106x    frame=  166 fps=0.5 q=40.0 size=       1kB time=00:00:03.16 bitrate=   1.9kbits/s speed=0.0104x    frame=  167 fps=0.5 q=40.0 size=       1kB time=00:00:03.20 bitrate=   1.8kbits/s speed=0.0105x    frame=  168 fps=0.5 q=40.0 size=       1kB time=00:00:03.25 bitrate=   1.8kbits/s speed=0.0105x    frame=  169 fps=0.5 q=40.0 size=       1kB time=00:00:03.29 bitrate=   1.8kbits/s speed=0.0106x    frame=  170 fps=0.5 q=40.0 size=       1kB time=00:00:03.33 bitrate=   1.8kbits/s speed=0.0106x    frame=  171 fps=0.5 q=40.0 size=       1kB time=00:00:03.37 bitrate=   1.7kbits/s speed=0.0106x    frame=  172 fps=0.5 q=40.0 size=       1kB time=00:00:03.41 bitrate=   1.7kbits/s speed=0.0106x    frame=  173 fps=0.5 q=39.0 size=       1kB time=00:00:03.45 bitrate=   1.7kbits/s speed=0.0106x    frame=  174 fps=0.5 q=39.0 size=       1kB time=00:00:03.50 bitrate=   1.7kbits/s speed=0.0107x    frame=  175 fps=0.5 q=39.0 size=       1kB time=00:00:03.54 bitrate=   1.7kbits/s speed=0.0107x    frame=  176 fps=0.5 q=39.0 size=       1kB time=00:00:03.58 bitrate=   1.6kbits/s speed=0.0107x    frame=  177 fps=0.5 q=39.0 size=       1kB time=00:00:03.62 bitrate=   1.6kbits/s speed=0.0107x    frame=  178 fps=0.5 q=39.0 size=       1kB time=00:00:03.66 bitrate=   1.6kbits/s speed=0.0107x    frame=  179 fps=0.5 q=39.0 size=       1kB time=00:00:03.70 bitrate=   1.6kbits/s speed=0.0107x    frame=  180 fps=0.5 q=39.0 size=       1kB time=00:00:03.75 bitrate=   1.6kbits/s speed=0.0108x    frame=  181 fps=0.5 q=39.0 size=       1kB time=00:00:03.79 bitrate=   1.6kbits/s speed=0.0108x    frame=  182 fps=0.5 q=39.0 size=       1kB time=00:00:03.83 bitrate=   1.5kbits/s speed=0.0108x    frame=  183 fps=0.5 q=39.0 size=       1kB time=00:00:03.87 bitrate=   1.5kbits/s speed=0.0108x    frame=  184 fps=0.5 q=39.0 size=       1kB time=00:00:03.91 bitrate=   1.5kbits/s speed=0.0108x    frame=  185 fps=0.5 q=39.0 size=       1kB time=00:00:03.95 bitrate=   1.5kbits/s speed=0.0108x    frame=  186 fps=0.5 q=39.0 size=       1kB time=00:00:04.00 bitrate=   1.5kbits/s speed=0.0108x    frame=  187 fps=0.5 q=39.0 size=       1kB time=00:00:04.04 bitrate=   1.5kbits/s speed=0.0109x    frame=  188 fps=0.5 q=39.0 size=       1kB time=00:00:04.08 bitrate=   1.4kbits/s speed=0.0109x    frame=  189 fps=0.5 q=39.0 size=       1kB time=00:00:04.12 bitrate=   1.4kbits/s speed=0.0109x    frame=  190 fps=0.5 q=39.0 size=       1kB time=00:00:04.16 bitrate=   1.4kbits/s speed=0.011x    frame=  191 fps=0.5 q=39.0 size=       1kB time=00:00:04.20 bitrate=   1.4kbits/s speed=0.0109x    frame=  192 fps=0.5 q=39.0 size=       1kB time=00:00:04.25 bitrate=   1.4kbits/s speed=0.011x    frame=  193 fps=0.5 q=39.0 size=       1kB time=00:00:04.29 bitrate=   1.4kbits/s speed=0.011x    frame=  194 fps=0.5 q=39.0 size=       1kB time=00:00:04.33 bitrate=   1.4kbits/s speed=0.0111x    frame=  195 fps=0.5 q=39.0 size=       1kB time=00:00:04.37 bitrate=   1.3kbits/s speed=0.011x    frame=  196 fps=0.5 q=39.0 size=       1kB time=00:00:04.41 bitrate=   1.3kbits/s speed=0.0111x    frame=  197 fps=0.5 q=38.0 size=       1kB time=00:00:04.45 bitrate=   1.3kbits/s speed=0.0111x    frame=  198 fps=0.5 q=38.0 size=       1kB time=00:00:04.50 bitrate=   1.3kbits/s speed=0.0111x    frame=  199 fps=0.5 q=38.0 size=       1kB time=00:00:04.54 bitrate=   1.3kbits/s speed=0.0112x    frame=  200 fps=0.5 q=38.0 size=       1kB time=00:00:04.58 bitrate=   1.3kbits/s speed=0.0112x    frame=  201 fps=0.5 q=38.0 size=       1kB time=00:00:04.62 bitrate=   1.3kbits/s speed=0.0111x    frame=  202 fps=0.5 q=38.0 size=       1kB time=00:00:04.66 bitrate=   1.3kbits/s speed=0.0112x    frame=  203 fps=0.5 q=38.0 size=       1kB time=00:00:04.70 bitrate=   1.3kbits/s speed=0.0112x    frame=  204 fps=0.5 q=38.0 size=       1kB time=00:00:04.75 bitrate=   1.2kbits/s speed=0.011x    frame=  205 fps=0.5 q=38.0 size=       1kB time=00:00:04.79 bitrate=   1.2kbits/s speed=0.0111x    frame=  206 fps=0.5 q=38.0 size=       1kB time=00:00:04.83 bitrate=   1.2kbits/s speed=0.0111x    frame=  207 fps=0.5 q=38.0 size=       1kB time=00:00:04.87 bitrate=   1.2kbits/s speed=0.0111x    frame=  208 fps=0.5 q=38.0 size=    4875kB time=00:00:04.91 bitrate=8120.7kbits/s speed=0.0112x    frame=  209 fps=0.5 q=38.0 size=    4875kB time=00:00:04.95 bitrate=8053.6kbits/s speed=0.0112x    frame=  210 fps=0.5 q=38.0 size=    4875kB time=00:00:05.00 bitrate=7986.0kbits/s speed=0.0113x    frame=  211 fps=0.5 q=38.0 size=    4875kB time=00:00:05.04 bitrate=7919.4kbits/s speed=0.0111x    frame=  212 fps=0.5 q=38.0 size=    4875kB time=00:00:05.08 bitrate=7855.6kbits/s speed=0.0111x    frame=  213 fps=0.5 q=38.0 size=    4875kB time=00:00:05.12 bitrate=7791.2kbits/s speed=0.0112x    frame=  214 fps=0.5 q=38.0 size=    4875kB time=00:00:05.16 bitrate=7727.9kbits/s speed=0.0112x    frame=  215 fps=0.5 q=38.0 size=    4875kB time=00:00:05.20 bitrate=7667.1kbits/s speed=0.0112x    frame=  216 fps=0.5 q=38.0 size=    4875kB time=00:00:05.25 bitrate=7605.7kbits/s speed=0.0112x    frame=  217 fps=0.5 q=38.0 size=    4875kB time=00:00:05.29 bitrate=7545.4kbits/s speed=0.0112x    frame=  218 fps=0.5 q=38.0 size=    4875kB time=00:00:05.33 bitrate=7487.4kbits/s speed=0.0111x    frame=  219 fps=0.5 q=38.0 size=    4875kB time=00:00:05.37 bitrate=7428.9kbits/s speed=0.0112x    frame=  220 fps=0.5 q=38.0 size=    4875kB time=00:00:05.41 bitrate=7371.3kbits/s speed=0.0112x    frame=  221 fps=0.5 q=38.0 size=    4875kB time=00:00:05.45 bitrate=7315.9kbits/s speed=0.0112x    frame=  222 fps=0.5 q=38.0 size=    4875kB time=00:00:05.50 bitrate=7260.1kbits/s speed=0.0113x    frame=  223 fps=0.5 q=38.0 size=    4875kB time=00:00:05.54 bitrate=7205.1kbits/s speed=0.0112x    frame=  224 fps=0.4 q=38.0 size=    4875kB time=00:00:05.58 bitrate=7152.2kbits/s speed=0.0112x    frame=  225 fps=0.4 q=38.0 size=    4875kB time=00:00:05.62 bitrate=7098.8kbits/s speed=0.0112x    frame=  226 fps=0.4 q=38.0 size=    4875kB time=00:00:05.66 bitrate=7046.2kbits/s speed=0.0112x    frame=  227 fps=0.4 q=38.0 size=    4875kB time=00:00:05.70 bitrate=6995.6kbits/s speed=0.0112x    frame=  228 fps=0.4 q=38.0 size=    4875kB time=00:00:05.75 bitrate=6944.5kbits/s speed=0.0113x    frame=  229 fps=0.4 q=38.0 size=    4875kB time=00:00:05.79 bitrate=6894.1kbits/s speed=0.0112x    frame=  230 fps=0.4 q=38.0 size=    4875kB time=00:00:05.83 bitrate=6845.7kbits/s speed=0.0112x    frame=  231 fps=0.4 q=38.0 size=    4875kB time=00:00:05.87 bitrate=6796.8kbits/s speed=0.0112x    frame=  232 fps=0.4 q=38.0 size=    4875kB time=00:00:05.91 bitrate=6748.5kbits/s speed=0.0113x    frame=  233 fps=0.4 q=38.0 size=    4875kB time=00:00:05.95 bitrate=6702.1kbits/s speed=0.0113x    frame=  234 fps=0.4 q=38.0 size=    4875kB time=00:00:06.00 bitrate=6655.2kbits/s speed=0.0113x    frame=  235 fps=0.4 q=38.0 size=    4875kB time=00:00:06.04 bitrate=6608.9kbits/s speed=0.0113x    frame=  236 fps=0.4 q=38.0 size=    4875kB time=00:00:06.08 bitrate=6564.4kbits/s speed=0.0113x    frame=  237 fps=0.4 q=38.0 size=    4875kB time=00:00:06.12 bitrate=6519.4kbits/s speed=0.0113x    frame=  238 fps=0.4 q=38.0 size=    4875kB time=00:00:06.16 bitrate=6475.0kbits/s speed=0.0114x    frame=  239 fps=0.4 q=38.0 size=    4875kB time=00:00:06.20 bitrate=6432.2kbits/s speed=0.0113x    frame=  240 fps=0.4 q=38.0 size=    4875kB time=00:00:06.25 bitrate=6389.0kbits/s speed=0.0114x    frame=  241 fps=0.4 q=38.0 size=    4875kB time=00:00:06.29 bitrate=6346.4kbits/s speed=0.0114x    frame=  242 fps=0.4 q=38.0 size=    4875kB time=00:00:06.33 bitrate=6305.3kbits/s speed=0.0115x    frame=  243 fps=0.4 q=38.0 size=    4875kB time=00:00:06.37 bitrate=6263.8kbits/s speed=0.0115x    frame=  245 fps=0.4 q=38.0 size=    4875kB time=00:00:06.45 bitrate=6183.3kbits/s speed=0.0114x    frame=  246 fps=0.4 q=38.0 size=    4875kB time=00:00:06.50 bitrate=6143.3kbits/s speed=0.0114x    frame=  247 fps=0.4 q=38.0 size=    4875kB time=00:00:06.54 bitrate=6103.9kbits/s speed=0.0114x    frame=  248 fps=0.4 q=38.0 size=    4875kB time=00:00:06.58 bitrate=6065.9kbits/s speed=0.0115x    frame=  249 fps=0.4 q=38.0 size=    4875kB time=00:00:06.62 bitrate=6027.4kbits/s speed=0.0115x    frame=  250 fps=0.4 q=38.0 size=    4875kB time=00:00:06.66 bitrate=5989.5kbits/s speed=0.0115x    frame=  251 fps=0.4 q=37.0 size=    4875kB time=00:00:06.70 bitrate=5952.9kbits/s speed=0.0114x    frame=  252 fps=0.4 q=37.0 size=    4875kB time=00:00:06.75 bitrate=5915.8kbits/s speed=0.0114x    frame=  253 fps=0.4 q=37.0 size=    4875kB time=00:00:06.79 bitrate=5879.3kbits/s speed=0.0115x    frame=  254 fps=0.4 q=37.0 size=    4875kB time=00:00:06.83 bitrate=5844.0kbits/s speed=0.0114x    frame=  255 fps=0.4 q=37.0 size=    4875kB time=00:00:06.87 bitrate=5808.3kbits/s speed=0.0115x    frame=  256 fps=0.4 q=37.0 size=    4875kB time=00:00:06.91 bitrate=5773.0kbits/s speed=0.0115x    frame=  257 fps=0.4 q=37.0 size=    4875kB time=00:00:06.95 bitrate=5739.0kbits/s speed=0.0114x    frame=  258 fps=0.4 q=37.0 size=    4875kB time=00:00:07.00 bitrate=5704.6kbits/s speed=0.0114x    frame=  259 fps=0.4 q=37.0 size=    4875kB time=00:00:07.04 bitrate=5670.6kbits/s speed=0.0115x    frame=  260 fps=0.4 q=37.0 size=    4875kB time=00:00:07.08 bitrate=5637.7kbits/s speed=0.0115x    frame=  261 fps=0.4 q=37.0 size=    4875kB time=00:00:07.12 bitrate=5604.5kbits/s speed=0.0115x    frame=  262 fps=0.4 q=37.0 size=    4875kB time=00:00:07.16 bitrate=5571.7kbits/s speed=0.0115x    frame=  263 fps=0.4 q=37.0 size=    4875kB time=00:00:07.20 bitrate=5540.0kbits/s speed=0.0114x    frame=  264 fps=0.4 q=37.0 size=    4875kB time=00:00:07.25 bitrate=5507.9kbits/s speed=0.0115x    frame=  265 fps=0.4 q=37.0 size=    4875kB time=00:00:07.29 bitrate=5476.2kbits/s speed=0.0115x    frame=  266 fps=0.4 q=37.0 size=    4875kB time=00:00:07.33 bitrate=5445.6kbits/s speed=0.0115x    frame=  267 fps=0.4 q=37.0 size=    4875kB time=00:00:07.37 bitrate=5414.6kbits/s speed=0.0115x    frame=  268 fps=0.4 q=37.0 size=    4875kB time=00:00:07.41 bitrate=5383.9kbits/s speed=0.0115x    frame=  269 fps=0.4 q=37.0 size=    4875kB time=00:00:07.45 bitrate=5354.3kbits/s speed=0.0115x    frame=  270 fps=0.4 q=37.0 size=    4875kB time=00:00:07.50 bitrate=5324.3kbits/s speed=0.0115x    frame=  271 fps=0.4 q=37.0 size=    4875kB time=00:00:07.54 bitrate=5294.7kbits/s speed=0.0115x    frame=  272 fps=0.4 q=37.0 size=    4875kB time=00:00:07.58 bitrate=5266.1kbits/s speed=0.0114x    frame=  273 fps=0.4 q=37.0 size=    4875kB time=00:00:07.62 bitrate=5237.1kbits/s speed=0.0114x    frame=  274 fps=0.4 q=37.0 size=    4875kB time=00:00:07.66 bitrate=5208.4kbits/s speed=0.0115x    frame=  276 fps=0.4 q=37.0 size=    4875kB time=00:00:07.75 bitrate=5152.6kbits/s speed=0.0115x    frame=  277 fps=0.4 q=37.0 size=    4875kB time=00:00:07.79 bitrate=5124.8kbits/s speed=0.0116x    frame=  278 fps=0.4 q=37.0 size=    4875kB time=00:00:07.83 bitrate=5098.0kbits/s speed=0.0116x    frame=  279 fps=0.4 q=37.0 size=    4875kB time=00:00:07.87 bitrate=5070.8kbits/s speed=0.0115x    frame=  280 fps=0.4 q=37.0 size=    4875kB time=00:00:07.91 bitrate=5043.9kbits/s speed=0.0115x    frame=  281 fps=0.4 q=37.0 size=    4875kB time=00:00:07.95 bitrate=5017.9kbits/s speed=0.0116x    frame=  282 fps=0.4 q=37.0 size=    4875kB time=00:00:08.00 bitrate=4991.6kbits/s speed=0.0116x    frame=  283 fps=0.4 q=37.0 size=    4875kB time=00:00:08.04 bitrate=4965.5kbits/s speed=0.0116x    frame=  284 fps=0.4 q=37.0 size=    4875kB time=00:00:08.08 bitrate=4940.3kbits/s speed=0.0116x    frame=  285 fps=0.4 q=37.0 size=    4875kB time=00:00:08.12 bitrate=4914.8kbits/s speed=0.0115x    frame=  286 fps=0.4 q=37.0 size=    4875kB time=00:00:08.16 bitrate=4889.5kbits/s speed=0.0115x    frame=  287 fps=0.4 q=37.0 size=    4875kB time=00:00:08.20 bitrate=4865.1kbits/s speed=0.0116x    frame=  288 fps=0.4 q=37.0 size=    4875kB time=00:00:08.25 bitrate=4840.4kbits/s speed=0.0116x    frame=  289 fps=0.4 q=37.0 size=    4875kB time=00:00:08.29 bitrate=4815.8kbits/s speed=0.0116x    frame=  290 fps=0.4 q=37.0 size=    4875kB time=00:00:08.33 bitrate=4792.1kbits/s speed=0.0116x    frame=  291 fps=0.4 q=37.0 size=    4875kB time=00:00:08.37 bitrate=4768.1kbits/s speed=0.0115x    frame=  292 fps=0.4 q=37.0 size=    4875kB time=00:00:08.41 bitrate=4744.3kbits/s speed=0.0115x    frame=  293 fps=0.4 q=37.0 size=    4875kB time=00:00:08.45 bitrate=4721.3kbits/s speed=0.0115x    frame=  294 fps=0.4 q=37.0 size=    4875kB time=00:00:08.50 bitrate=4698.0kbits/s speed=0.0116x    frame=  295 fps=0.4 q=37.0 size=    4875kB time=00:00:08.54 bitrate=4674.9kbits/s speed=0.0116x    frame=  296 fps=0.4 q=37.0 size=    4875kB time=00:00:08.58 bitrate=4652.6kbits/s speed=0.0116x    frame=  297 fps=0.4 q=37.0 size=    4875kB time=00:00:08.62 bitrate=4629.9kbits/s speed=0.0115x    frame=  298 fps=0.4 q=37.0 size=    4875kB time=00:00:08.66 bitrate=4607.5kbits/s speed=0.0115x    frame=  299 fps=0.4 q=37.0 size=    4875kB time=00:00:08.70 bitrate=4585.8kbits/s speed=0.0116x    frame=  300 fps=0.4 q=37.0 size=    4875kB time=00:00:08.75 bitrate=4563.8kbits/s speed=0.0115x    frame=  301 fps=0.4 q=37.0 size=    4875kB time=00:00:08.79 bitrate=4542.0kbits/s speed=0.0116x    frame=  302 fps=0.4 q=37.0 size=    4875kB time=00:00:08.83 bitrate=4520.9kbits/s speed=0.0116x    frame=  303 fps=0.4 q=37.0 size=    4875kB time=00:00:08.87 bitrate=4499.5kbits/s speed=0.0116x    frame=  304 fps=0.4 q=37.0 size=    4875kB time=00:00:08.91 bitrate=4478.3kbits/s speed=0.0116x    frame=  305 fps=0.4 q=37.0 size=    4875kB time=00:00:08.95 bitrate=4457.8kbits/s speed=0.0116x    frame=  306 fps=0.4 q=37.0 size=    4875kB time=00:00:09.00 bitrate=4437.0kbits/s speed=0.0116x    frame=  307 fps=0.4 q=37.0 size=    4875kB time=00:00:09.04 bitrate=4416.4kbits/s speed=0.0116x    frame=  308 fps=0.4 q=37.0 size=    4875kB time=00:00:09.08 bitrate=4396.5kbits/s speed=0.0116x    frame=  309 fps=0.4 q=37.0 size=    4875kB time=00:00:09.12 bitrate=4376.3kbits/s speed=0.0116x    frame=  310 fps=0.4 q=37.0 size=    4875kB time=00:00:09.16 bitrate=4356.2kbits/s speed=0.0116x    frame=  311 fps=0.4 q=37.0 size=    4875kB time=00:00:09.20 bitrate=4336.8kbits/s speed=0.0117x    frame=  312 fps=0.4 q=37.0 size=    4875kB time=00:00:09.25 bitrate=4317.1kbits/s speed=0.0117x    frame=  313 fps=0.4 q=36.0 size=    4875kB time=00:00:09.29 bitrate=4297.6kbits/s speed=0.0117x    frame=  314 fps=0.4 q=36.0 size=    4875kB time=00:00:09.33 bitrate=4278.7kbits/s speed=0.0116x    frame=  315 fps=0.4 q=36.0 size=    4875kB time=00:00:09.37 bitrate=4259.6kbits/s speed=0.0117x    frame=  316 fps=0.4 q=36.0 size=    4875kB time=00:00:09.41 bitrate=4240.6kbits/s speed=0.0117x    frame=  319 fps=0.4 q=36.0 size=    4875kB time=00:00:09.54 bitrate=4185.0kbits/s speed=0.0118x    frame=  320 fps=0.4 q=36.0 size=    4875kB time=00:00:09.58 bitrate=4167.1kbits/s speed=0.0118x    frame=  321 fps=0.4 q=36.0 size=    4875kB time=00:00:09.62 bitrate=4148.9kbits/s speed=0.0117x    frame=  322 fps=0.4 q=36.0 size=    4875kB time=00:00:09.66 bitrate=4130.9kbits/s speed=0.0117x    frame=  323 fps=0.4 q=36.0 size=    4875kB time=00:00:09.70 bitrate=4113.5kbits/s speed=0.0117x    frame=  324 fps=0.4 q=36.0 size=    4875kB time=00:00:09.75 bitrate=4095.8kbits/s speed=0.0118x    frame=  325 fps=0.4 q=36.0 size=    4875kB time=00:00:09.79 bitrate=4078.2kbits/s speed=0.0118x    frame=  326 fps=0.4 q=36.0 size=    4875kB time=00:00:09.83 bitrate=4061.2kbits/s speed=0.0118x    frame=  327 fps=0.4 q=36.0 size=    4875kB time=00:00:09.87 bitrate=4043.9kbits/s speed=0.0118x    frame=  328 fps=0.4 q=36.0 size=    4875kB time=00:00:09.91 bitrate=4026.8kbits/s speed=0.0117x    frame=  329 fps=0.4 q=36.0 size=    8997kB time=00:00:09.95 bitrate=7400.6kbits/s speed=0.0118x    frame=  330 fps=0.4 q=36.0 size=    8997kB time=00:00:10.00 bitrate=7369.5kbits/s speed=0.0118x    frame=  331 fps=0.4 q=36.0 size=    8997kB time=00:00:10.04 bitrate=7338.7kbits/s speed=0.0118x    frame=  332 fps=0.4 q=36.0 size=    8997kB time=00:00:10.08 bitrate=7308.8kbits/s speed=0.0119x    frame=  333 fps=0.4 q=33.0 size=    8997kB time=00:00:10.12 bitrate=7278.5kbits/s speed=0.0119x    frame=  334 fps=0.4 q=36.0 size=    8997kB time=00:00:10.16 bitrate=7248.4kbits/s speed=0.0118x    frame=  335 fps=0.4 q=36.0 size=    8997kB time=00:00:10.20 bitrate=7219.3kbits/s speed=0.0118x    frame=  336 fps=0.4 q=36.0 size=    8997kB time=00:00:10.25 bitrate=7189.7kbits/s speed=0.0118x    frame=  337 fps=0.4 q=36.0 size=    8997kB time=00:00:10.29 bitrate=7160.4kbits/s speed=0.0119x    frame=  338 fps=0.4 q=36.0 size=    9270kB time=00:00:10.33 bitrate=7348.7kbits/s speed=0.0119x    frame=  344 fps=0.4 q=36.0 size=    9270kB time=00:00:10.58 bitrate=7175.1kbits/s speed=0.0121x    frame=  346 fps=0.4 q=36.0 size=    9270kB time=00:00:10.66 bitrate=7118.6kbits/s speed=0.0122x    frame=  347 fps=0.4 q=36.0 size=    9270kB time=00:00:10.70 bitrate=7091.4kbits/s speed=0.0122x    frame=  348 fps=0.4 q=33.0 size=    9270kB time=00:00:10.75 bitrate=7063.7kbits/s speed=0.0122x    frame=  349 fps=0.4 q=36.0 size=    9270kB time=00:00:10.79 bitrate=7036.2kbits/s speed=0.0123x    frame=  350 fps=0.4 q=36.0 size=    9270kB time=00:00:10.83 bitrate=7009.5kbits/s speed=0.0123x    frame=  351 fps=0.4 q=36.0 size=    9270kB time=00:00:10.87 bitrate=6982.5kbits/s speed=0.0123x    frame=  353 fps=0.4 q=36.0 size=    9270kB time=00:00:10.95 bitrate=6929.6kbits/s speed=0.0124x    frame=  355 fps=0.4 q=35.0 size=    9270kB time=00:00:11.04 bitrate=6876.9kbits/s speed=0.0124x    frame=  357 fps=0.4 q=35.0 size=    9270kB time=00:00:11.12 bitrate=6825.6kbits/s speed=0.0125x    frame=  358 fps=0.4 q=35.0 size=    9270kB time=00:00:11.16 bitrate=6799.9kbits/s speed=0.0124x    frame=  359 fps=0.4 q=35.0 size=    9270kB time=00:00:11.20 bitrate=6775.0kbits/s speed=0.0125x    frame=  360 fps=0.4 q=35.0 size=    9270kB time=00:00:11.25 bitrate=6749.7kbits/s speed=0.0125x    frame=  361 fps=0.4 q=35.0 size=    9270kB time=00:00:11.29 bitrate=6724.6kbits/s speed=0.0125x    frame=  362 fps=0.4 q=35.0 size=    9270kB time=00:00:11.33 bitrate=6700.3kbits/s speed=0.0125x    frame=  363 fps=0.4 q=35.0 size=    9270kB time=00:00:11.37 bitrate=6675.6kbits/s speed=0.0125x    frame=  365 fps=0.4 q=35.0 size=    9270kB time=00:00:11.45 bitrate=6627.2kbits/s speed=0.0125x    frame=  366 fps=0.4 q=35.0 size=    9270kB time=00:00:11.50 bitrate=6603.0kbits/s speed=0.0125x    frame=  367 fps=0.4 q=35.0 size=    9270kB time=00:00:11.54 bitrate=6579.0kbits/s speed=0.0126x    frame=  369 fps=0.4 q=35.0 size=    9270kB time=00:00:11.62 bitrate=6532.0kbits/s speed=0.0126x    frame=  370 fps=0.4 q=35.0 size=    9270kB time=00:00:11.66 bitrate=6508.5kbits/s speed=0.0126x    frame=  371 fps=0.4 q=35.0 size=    9270kB time=00:00:11.70 bitrate=6485.7kbits/s speed=0.0126x    frame=  372 fps=0.4 q=35.0 size=    9270kB time=00:00:11.75 bitrate=6462.5kbits/s speed=0.0126x    frame=  373 fps=0.4 q=35.0 size=    9270kB time=00:00:11.79 bitrate=6439.5kbits/s speed=0.0126x    frame=  374 fps=0.4 q=35.0 size=    9270kB time=00:00:11.83 bitrate=6417.2kbits/s speed=0.0126x    frame=  376 fps=0.4 q=35.0 size=    9270kB time=00:00:11.91 bitrate=6372.0kbits/s speed=0.0127x    frame=  377 fps=0.4 q=35.0 size=    9270kB time=00:00:11.95 bitrate=6350.1kbits/s speed=0.0127x    frame=  378 fps=0.4 q=35.0 size=    9270kB time=00:00:12.00 bitrate=6327.9kbits/s speed=0.0127x    frame=  379 fps=0.4 q=35.0 size=    9270kB time=00:00:12.04 bitrate=6305.8kbits/s speed=0.0128x    frame=  380 fps=0.4 q=35.0 size=    9270kB time=00:00:12.08 bitrate=6284.5kbits/s speed=0.0127x    frame=  381 fps=0.4 q=35.0 size=    9270kB time=00:00:12.12 bitrate=6262.7kbits/s speed=0.0127x    frame=  382 fps=0.4 q=35.0 size=    9270kB time=00:00:12.16 bitrate=6241.1kbits/s speed=0.0128x    frame=  385 fps=0.4 q=35.0 size=    9270kB time=00:00:12.29 bitrate=6177.6kbits/s speed=0.0128x    frame=  386 fps=0.4 q=35.0 size=    9270kB time=00:00:12.33 bitrate=6157.1kbits/s speed=0.0128x    frame=  387 fps=0.4 q=35.0 size=    9270kB time=00:00:12.37 bitrate=6136.2kbits/s speed=0.0129x    frame=  388 fps=0.4 q=34.0 size=    9270kB time=00:00:12.41 bitrate=6115.4kbits/s speed=0.0128x    frame=  389 fps=0.4 q=34.0 size=    9270kB time=00:00:12.45 bitrate=6095.3kbits/s speed=0.0129x    frame=  390 fps=0.4 q=35.0 size=    9270kB time=00:00:12.50 bitrate=6074.8kbits/s speed=0.0129x    frame=  394 fps=0.4 q=34.0 size=    9270kB time=00:00:12.66 bitrate=5994.7kbits/s speed=0.0129x    frame=  395 fps=0.4 q=34.0 size=    9270kB time=00:00:12.70 bitrate=5975.4kbits/s speed=0.0129x    frame=  396 fps=0.4 q=34.0 size=    9270kB time=00:00:12.75 bitrate=5955.7kbits/s speed=0.013x    frame=  400 fps=0.4 q=34.0 size=    9270kB time=00:00:12.91 bitrate=5878.7kbits/s speed=0.013x    frame=  401 fps=0.4 q=34.0 size=    9270kB time=00:00:12.95 bitrate=5860.1kbits/s speed=0.013x    frame=  402 fps=0.4 q=34.0 size=    9270kB time=00:00:13.00 bitrate=5841.2kbits/s speed=0.0131x    frame=  406 fps=0.4 q=34.0 size=    9270kB time=00:00:13.16 bitrate=5767.1kbits/s speed=0.0131x    frame=  407 fps=0.4 q=34.0 size=    9270kB time=00:00:13.20 bitrate=5749.2kbits/s speed=0.0131x    frame=  408 fps=0.4 q=34.0 size=    9270kB time=00:00:13.25 bitrate=5731.0kbits/s speed=0.0131x    frame=  411 fps=0.4 q=33.0 size=    9270kB time=00:00:13.37 bitrate=5677.4kbits/s speed=0.0132x    frame=  412 fps=0.4 q=33.0 size=    9270kB time=00:00:13.41 bitrate=5659.7kbits/s speed=0.0132x    frame=  414 fps=0.4 q=33.0 size=    9270kB time=00:00:13.50 bitrate=5624.9kbits/s speed=0.0133x    frame=  416 fps=0.4 q=33.0 size=    9270kB time=00:00:13.58 bitrate=5590.5kbits/s speed=0.0132x    frame=  418 fps=0.4 q=33.0 size=    9270kB time=00:00:13.66 bitrate=5556.1kbits/s speed=0.0133x    frame=  421 fps=0.4 q=33.0 size=    9270kB time=00:00:13.79 bitrate=5505.8kbits/s speed=0.0134x    frame=  422 fps=0.4 q=33.0 size=    9270kB time=00:00:13.83 bitrate=5489.5kbits/s speed=0.0134x    frame=  423 fps=0.4 q=33.0 size=    9270kB time=00:00:13.87 bitrate=5472.9kbits/s speed=0.0134x    frame=  426 fps=0.4 q=33.0 size=    9270kB time=00:00:14.00 bitrate=5424.0kbits/s speed=0.0134x    frame=  428 fps=0.4 q=33.0 size=    9270kB time=00:00:14.08 bitrate=5392.0kbits/s speed=0.0135x    frame=  432 fps=0.4 q=32.0 size=    9270kB time=00:00:14.25 bitrate=5328.8kbits/s speed=0.0135x    frame=  433 fps=0.4 q=33.0 size=    9270kB time=00:00:14.29 bitrate=5313.2kbits/s speed=0.0135x    frame=  435 fps=0.4 q=33.0 size=    9270kB time=00:00:14.37 bitrate=5282.5kbits/s speed=0.0136x    frame=  438 fps=0.4 q=32.0 size=    9270kB time=00:00:14.50 bitrate=5237.0kbits/s speed=0.0136x    frame=  440 fps=0.4 q=32.0 size=    9270kB time=00:00:14.58 bitrate=5207.2kbits/s speed=0.0136x    frame=  444 fps=0.4 q=32.0 size=    9270kB time=00:00:14.75 bitrate=5148.2kbits/s speed=0.0137x    frame=  445 fps=0.4 q=32.0 size=    9270kB time=00:00:14.79 bitrate=5133.6kbits/s speed=0.0137x    frame=  446 fps=0.4 q=32.0 size=    9270kB time=00:00:14.83 bitrate=5119.4kbits/s speed=0.0137x    frame=  448 fps=0.4 q=32.0 size=    9270kB time=00:00:14.91 bitrate=5090.6kbits/s speed=0.0137x    frame=  449 fps=0.4 q=32.0 size=    9270kB time=00:00:14.95 bitrate=5076.6kbits/s speed=0.0137x    frame=  450 fps=0.4 q=32.0 size=    9270kB time=00:00:15.00 bitrate=5062.4kbits/s speed=0.0137x    frame=  452 fps=0.4 q=32.0 size=    9270kB time=00:00:15.08 bitrate=5034.6kbits/s speed=0.0137x    frame=  453 fps=0.4 q=32.0 size=    9270kB time=00:00:15.12 bitrate=5020.6kbits/s speed=0.0138x    frame=  454 fps=0.4 q=32.0 size=    9270kB time=00:00:15.16 bitrate=5006.7kbits/s speed=0.0138x    frame=  455 fps=0.4 q=32.0 size=    9270kB time=00:00:15.20 bitrate=4993.2kbits/s speed=0.0137x    frame=  456 fps=0.4 q=32.0 size=    9270kB time=00:00:15.25 bitrate=4979.4kbits/s speed=0.0137x    frame=  457 fps=0.4 q=32.0 size=    9270kB time=00:00:15.29 bitrate=4965.8kbits/s speed=0.0138x    frame=  458 fps=0.4 q=32.0 size=   12363kB time=00:00:15.33 bitrate=6605.0kbits/s speed=0.0138x    frame=  459 fps=0.4 q=32.0 size=   12363kB time=00:00:15.37 bitrate=6587.0kbits/s speed=0.0137x    frame=  460 fps=0.4 q=32.0 size=   12363kB time=00:00:15.41 bitrate=6569.1kbits/s speed=0.0137x    frame=  461 fps=0.4 q=32.0 size=   12363kB time=00:00:15.45 bitrate=6551.6kbits/s speed=0.0138x    frame=  463 fps=0.4 q=32.0 size=   12363kB time=00:00:15.54 bitrate=6516.2kbits/s speed=0.0138x    frame=  464 fps=0.4 q=32.0 size=   12363kB time=00:00:15.58 bitrate=6499.1kbits/s speed=0.0138x    frame=  465 fps=0.4 q=32.0 size=   12363kB time=00:00:15.62 bitrate=6481.6kbits/s speed=0.0138x    frame=  467 fps=0.4 q=32.0 size=   12363kB time=00:00:15.70 bitrate=6447.4kbits/s speed=0.0138x    frame=  468 fps=0.4 q=32.0 size=   12363kB time=00:00:15.75 bitrate=6430.2kbits/s speed=0.0138x    frame=  469 fps=0.4 q=32.0 size=   12363kB time=00:00:15.79 bitrate=6413.1kbits/s speed=0.0138x    frame=  470 fps=0.4 q=31.0 size=   12363kB time=00:00:15.83 bitrate=6396.5kbits/s speed=0.0138x    frame=  471 fps=0.4 q=31.0 size=   12363kB time=00:00:15.87 bitrate=6379.6kbits/s speed=0.0138x    frame=  472 fps=0.4 q=31.0 size=   12363kB time=00:00:15.91 bitrate=6362.7kbits/s speed=0.0138x    frame=  475 fps=0.4 q=31.0 size=   12363kB time=00:00:16.04 bitrate=6313.1kbits/s speed=0.0139x    frame=  476 fps=0.4 q=31.0 size=   12363kB time=00:00:16.08 bitrate=6297.0kbits/s speed=0.0138x    frame=  477 fps=0.4 q=31.0 size=   12363kB time=00:00:16.12 bitrate=6280.6kbits/s speed=0.0138x    frame=  478 fps=0.4 q=31.0 size=   12363kB time=00:00:16.16 bitrate=6264.3kbits/s speed=0.0139x    frame=  479 fps=0.4 q=31.0 size=   12363kB time=00:00:16.20 bitrate=6248.5kbits/s speed=0.0138x    frame=  480 fps=0.4 q=31.0 size=   12363kB time=00:00:16.25 bitrate=6232.3kbits/s speed=0.0139x    frame=  481 fps=0.4 q=31.0 size=   12363kB time=00:00:16.29 bitrate=6216.3kbits/s speed=0.0139x    frame=  482 fps=0.4 q=31.0 size=   12363kB time=00:00:16.33 bitrate=6200.7kbits/s speed=0.0139x    frame=  483 fps=0.4 q=31.0 size=   12363kB time=00:00:16.37 bitrate=6184.8kbits/s speed=0.0138x    frame=  484 fps=0.4 q=31.0 size=   12363kB time=00:00:16.41 bitrate=6168.9kbits/s speed=0.0138x    frame=  485 fps=0.4 q=31.0 size=   12363kB time=00:00:16.45 bitrate=6153.6kbits/s speed=0.0138x    frame=  487 fps=0.4 q=31.0 size=   12363kB time=00:00:16.54 bitrate=6122.3kbits/s speed=0.0139x    frame=  488 fps=0.4 q=32.0 size=   12363kB time=00:00:16.58 bitrate=6107.2kbits/s speed=0.0139x    frame=  489 fps=0.4 q=31.0 size=   12363kB time=00:00:16.62 bitrate=6091.8kbits/s speed=0.0139x    frame=  490 fps=0.4 q=32.0 size=   12363kB time=00:00:16.66 bitrate=6076.4kbits/s speed=0.0138x    frame=  491 fps=0.4 q=32.0 size=   12363kB time=00:00:16.70 bitrate=6061.5kbits/s speed=0.0138x    frame=  492 fps=0.4 q=32.0 size=   12363kB time=00:00:16.75 bitrate=6046.3kbits/s speed=0.0138x    frame=  493 fps=0.4 q=32.0 size=   12363kB time=00:00:16.79 bitrate=6031.2kbits/s speed=0.0138x    frame=  494 fps=0.4 q=32.0 size=   12363kB time=00:00:16.83 bitrate=6016.5kbits/s speed=0.0138x    frame=  495 fps=0.4 q=32.0 size=   12363kB time=00:00:16.87 bitrate=6001.5kbits/s speed=0.0138x    frame=  496 fps=0.4 q=32.0 size=   12363kB time=00:00:16.91 bitrate=5986.6kbits/s speed=0.0139x    frame=  497 fps=0.4 q=32.0 size=   12363kB time=00:00:16.95 bitrate=5972.2kbits/s speed=0.0138x    frame=  498 fps=0.4 q=32.0 size=   12363kB time=00:00:17.00 bitrate=5957.4kbits/s speed=0.0138x    frame=  499 fps=0.4 q=32.0 size=   12363kB time=00:00:17.04 bitrate=5942.7kbits/s speed=0.0138x    frame=  500 fps=0.4 q=31.0 size=   12363kB time=00:00:17.08 bitrate=5928.5kbits/s speed=0.0138x    frame=  500 fps=0.3 q=-1.0 Lsize=   17326kB time=00:00:20.70 bitrate=6853.8kbits/s speed=0.0144x    
video:17321kB audio:0kB subtitle:0kB other streams:0kB global headers:0kB muxing overhead: 0.027141%
bench: utime=5456.132s
bench: maxrss=4183888kB
[libx264 @ 0x35541c0] frame I:3     Avg QP:26.19  size:187789
[libx264 @ 0x35541c0] frame P:267   Avg QP:34.25  size: 46219
[libx264 @ 0x35541c0] frame B:230   Avg QP:33.86  size: 21012
[libx264 @ 0x35541c0] consecutive B-frames: 34.8% 13.6% 12.0% 16.0% 14.0%  9.6%  0.0%  0.0%  0.0%  0.0%  0.0%  0.0%  0.0%  0.0%  0.0%  0.0%  0.0%
[libx264 @ 0x35541c0] mb I  I16..4: 17.4% 73.1%  9.5%
[libx264 @ 0x35541c0] mb P  I16..4: 14.6% 13.2%  4.1%  P16..4: 28.2% 14.4%  1.9%  0.1%  0.0%    skip:23.7%
[libx264 @ 0x35541c0] mb B  I16..4:  1.1%  1.6%  0.1%  B16..8: 28.3%  5.8%  0.6%  direct: 0.7%  skip:61.8%  L0:41.1% L1:56.7% BI: 2.3%
[libx264 @ 0x35541c0] final ratefactor: 29.12
[libx264 @ 0x35541c0] 8x8 transform intra:43.4% inter:87.8%
[libx264 @ 0x35541c0] direct mvs  spatial:98.7% temporal:1.3%
[libx264 @ 0x35541c0] coded y,uvDC,uvAC intra: 13.1% 15.4% 0.9% inter: 3.3% 3.0% 0.0%
[libx264 @ 0x35541c0] i16 v,h,dc,p:  7% 15%  3% 75%
[libx264 @ 0x35541c0] i8 v,h,dc,ddl,ddr,vr,hd,vl,hu: 15%  8% 35%  5%  7%  6%  8%  6% 11%
[libx264 @ 0x35541c0] i4 v,h,dc,ddl,ddr,vr,hd,vl,hu: 15%  7% 72%  1%  1%  1%  1%  1%  1%
[libx264 @ 0x35541c0] i8c dc,h,v,p: 35% 39% 10% 16%
[libx264 @ 0x35541c0] Weighted P-Frames: Y:3.0% UV:2.6%
[libx264 @ 0x35541c0] ref P L0: 54.6% 20.9% 11.1%  3.6%  2.2%  1.7%  1.4%  0.8%  0.7%  0.6%  0.5%  0.5%  0.4%  0.4%  0.3%  0.2%
[libx264 @ 0x35541c0] ref B L0: 90.3%  4.7%  1.9%  0.8%  0.6%  0.4%  0.3%  0.2%  0.2%  0.1%  0.1%  0.1%  0.1%  0.1%  0.0%
[libx264 @ 0x35541c0] ref B L1: 98.7%  1.3%
[libx264 @ 0x35541c0] kb/s:6810.82
